<svg id="svg" version="1.1" xmlns="http://www.w3.org/2000/svg" xmlns:xlink="http://www.w3.org/1999/xlink" width="400"
    height="400" viewBox="0, 0, 400,400">
    <g id="svgg">
        <path id="path0"
            d="M143.167 116.690 C 111.171 120.949,85.321 153.060,87.504 185.833 C 90.209 226.440,112.162 259.578,154.286 286.636 C 168.379 295.689,194.439 308.449,198.833 308.448 C 202.517 308.447,226.743 297.089,239.833 289.226 C 284.682 262.287,309.115 228.044,312.337 187.611 C 315.673 145.746,277.670 109.506,238.608 117.304 C 224.902 120.040,209.069 129.798,201.312 140.290 C 200.274 141.695,199.711 141.594,198.333 139.755 C 186.342 123.743,163.121 114.034,143.167 116.690 "
            stroke="none" fill="#fbfbfb" fill-rule="evenodd"></path>
        <path id="path1"
            d="M179.000 0.232 C 152.137 3.128,122.250 12.526,102.326 24.344 C 101.322 24.940,99.825 25.804,99.000 26.265 C 64.617 45.472,32.034 81.712,16.525 118.000 C 16.172 118.825,15.597 120.175,15.248 121.000 C 14.898 121.825,14.388 122.996,14.115 123.602 C 8.224 136.659,2.134 160.760,0.327 178.167 C -0.312 184.324,0.043 221.071,0.792 226.333 C 3.221 243.391,8.969 264.993,14.115 276.398 C 14.388 277.004,14.898 278.175,15.248 279.000 C 15.597 279.825,16.172 281.174,16.525 281.999 C 28.357 309.640,49.821 337.246,75.333 357.635 C 102.795 379.581,136.000 393.689,172.833 399.061 C 180.646 400.201,215.971 400.380,224.643 399.325 C 286.684 391.773,343.911 354.034,373.741 301.000 C 374.205 300.175,375.143 298.525,375.826 297.333 C 377.153 295.018,382.406 284.492,383.479 282.000 C 385.896 276.386,386.656 274.485,388.734 268.852 C 393.942 254.737,397.859 238.112,399.498 223.167 C 400.392 215.013,400.088 179.808,399.062 172.754 C 396.611 155.899,390.980 134.895,385.885 123.602 C 385.612 122.996,385.102 121.825,384.752 121.000 C 384.403 120.175,383.828 118.825,383.475 118.000 C 382.431 115.559,377.169 105.011,375.826 102.667 C 375.143 101.475,374.205 99.825,373.741 99.000 C 357.794 70.649,329.262 42.117,301.000 26.257 C 300.175 25.794,298.525 24.858,297.333 24.176 C 276.929 12.502,249.895 3.755,224.686 0.671 C 219.572 0.045,183.913 -0.297,179.000 0.232 M161.793 117.310 C 175.664 120.106,190.395 129.155,198.333 139.755 C 199.711 141.594,200.274 141.695,201.312 140.290 C 209.069 129.798,224.902 120.040,238.608 117.304 C 277.670 109.506,315.673 145.746,312.337 187.611 C 308.378 237.297,269.484 280.644,206.195 305.908 C 198.621 308.932,199.001 308.909,193.333 306.672 C 153.697 291.030,120.055 264.858,103.069 236.449 C 92.144 218.178,86.293 196.044,87.662 178.167 C 90.651 139.128,126.014 110.097,161.793 117.310 "
            stroke="none" fill="#ca5b5b" fill-rule="evenodd"></path>
    </g>
</svg>